<?xml version="1.0" encoding="UTF-8"?>
<svg id="Layer_1" xmlns="http://www.w3.org/2000/svg" xmlns:xlink="http://www.w3.org/1999/xlink" version="1.1" viewBox="0 0 2597.6 2597.6">
  <!-- Generator: Adobe Illustrator 29.2.1, SVG Export Plug-In . SVG Version: 2.1.0 Build 116)  -->
  <defs>
    <style>
      .st0 {
        fill: none;
      }

      .st1 {
        font-family: HouschkaRounded-DemiBold, 'Houschka Rounded';
        font-size: 126.5px;
        font-weight: 300;
      }

      .st2 {
        fill: #fff;
      }
    </style>
    <path id="path" d="M2222.9,1293.8c0-510.5-413.8-924.3-924.3-924.3s-924.3,413.8-924.3,924.3,413.8,924.3,924.3,924.3,924.3-413.8,924.3-924.3Z"/>
  </defs>
  <rect x="-364.1" y="-375.4" width="3356.3" height="3379"/>
  <circle class="st2" cx="231.3" cy="2613.5" r="840"/>
  <circle class="st2" cx="2378" cy="2608.1" r="840"/>
  <circle class="st2" cx="1354.8" cy="2831.8" r="840"/>
  <g>
    <g>
      <circle cx="1298.6" cy="1293.8" r="948.7"/>
      <g>
        <path class="st2" d="M817.7,1106.1l29.4,10.7,10.7,29.4c1.4,3.8,5.7,5.8,9.5,4.4,2-.8,3.6-2.3,4.4-4.4l10.7-29.4,29.4-10.7c3.8-1.4,5.8-5.7,4.4-9.5-.8-2-2.3-3.6-4.4-4.4l-29.4-10.7-10.7-29.4c-1.4-3.8-5.7-5.8-9.5-4.4-2,.8-3.6,2.3-4.4,4.4l-10.7,29.4-29.4,10.7c-2.9,1-4.9,3.8-4.9,6.9,0,3.1,1.9,5.9,4.9,6.9Z"/>
        <path class="st2" d="M451.6,1239.8l22,8,8,22c1.1,2.9,4.3,4.3,7.1,3.3,1.5-.6,2.7-1.8,3.3-3.3l8-22,22-8c2.9-1.1,4.3-4.3,3.3-7.1-.6-1.5-1.8-2.7-3.3-3.3l-22-8-8-22c-1.1-2.9-4.3-4.3-7.1-3.3-1.5.6-2.7,1.8-3.3,3.3l-8,22-22,8c-2.2.8-3.7,2.9-3.6,5.2,0,2.3,1.4,4.4,3.6,5.2Z"/>
        <path class="st2" d="M590.3,988.6l37.8,13.7,13.7,37.8c1.8,4.9,7.3,7.4,12.2,5.6,2.6-1,4.7-3,5.6-5.6l13.7-37.8,37.8-13.7c4.9-1.8,7.4-7.3,5.6-12.2-1-2.6-3-4.7-5.6-5.6l-37.8-13.7-13.7-37.8c-1.8-4.9-7.3-7.4-12.2-5.6-2.6,1-4.7,3-5.6,5.6l-13.7,37.8-37.8,13.7c-3.8,1.3-6.3,4.9-6.3,8.9,0,4,2.5,7.6,6.3,8.9Z"/>
        <path class="st2" d="M1975.3,1464.3l37.8,13.7,13.7,37.8c1.8,4.9,7.3,7.4,12.2,5.6,2.6-1,4.7-3,5.6-5.6l13.7-37.8,37.8-13.7c4.9-1.8,7.4-7.3,5.6-12.2-1-2.6-3-4.7-5.6-5.6l-37.8-13.7-13.7-37.8c-1.8-4.9-7.3-7.4-12.2-5.6-2.6,1-4.7,3-5.6,5.6l-13.7,37.8-37.8,13.7c-3.8,1.3-6.3,4.9-6.3,8.9,0,4,2.5,7.6,6.3,8.9Z"/>
        <path class="st2" d="M1856.1,1024.4l68.2,24.8,24.8,68.2c3.3,8.9,13.2,13.4,22.1,10.1,4.7-1.7,8.4-5.4,10.1-10.1l24.8-68.2,68.2-24.8c8.9-3.3,13.4-13.2,10.1-22.1-1.7-4.7-5.4-8.4-10.1-10.1l-68.2-24.8-24.8-68.2c-3.3-8.9-13.2-13.4-22.1-10.1-4.7,1.7-8.4,5.4-10.1,10.1l-24.8,68.2-68.2,24.8c-6.8,2.4-11.3,8.9-11.3,16.1,0,7.2,4.5,13.7,11.3,16.1Z"/>
        <path class="st2" d="M627.6,1382.1l68.2,24.8,24.8,68.2c3.3,8.9,13.2,13.4,22.1,10.1,4.7-1.7,8.4-5.4,10.1-10.1l24.8-68.2,68.2-24.8c8.9-3.3,13.4-13.2,10.1-22.1-1.7-4.7-5.4-8.4-10.1-10.1l-68.2-24.8-24.8-68.2c-3.3-8.9-13.2-13.4-22.1-10.1-4.7,1.7-8.4,5.4-10.1,10.1l-24.8,68.2-68.2,24.8c-6.8,2.4-11.3,8.9-11.3,16.1,0,7.2,4.5,13.7,11.3,16.1Z"/>
        <path class="st2" d="M1721.1,851.1l24.1,8.8,8.8,24.1c1.2,3.2,4.7,4.8,7.8,3.6,1.7-.6,3-1.9,3.6-3.6l8.8-24.1,24.1-8.8c3.2-1.2,4.8-4.7,3.6-7.8-.6-1.7-1.9-3-3.6-3.6l-24.1-8.8-8.8-24.1c-1.2-3.2-4.7-4.8-7.8-3.6-1.7.6-3,1.9-3.6,3.6l-8.8,24.1-24.1,8.8c-2.4.9-4,3.1-4,5.7,0,2.6,1.6,4.8,4,5.7Z"/>
        <path class="st2" d="M862.1,798.5l18.9,6.9,6.9,18.9c.9,2.5,3.7,3.7,6.1,2.8,1.3-.5,2.3-1.5,2.8-2.8l6.9-18.9,18.9-6.9c2.5-.9,3.7-3.7,2.8-6.1-.5-1.3-1.5-2.3-2.8-2.8l-18.9-6.9-6.9-18.9c-.9-2.5-3.7-3.7-6.1-2.8-1.3.5-2.3,1.5-2.8,2.8l-6.9,18.9-18.9,6.9c-1.9.7-3.1,2.5-3.1,4.5,0,2,1.2,3.8,3.1,4.5Z"/>
        <path class="st2" d="M1894.8,1253.4l11.1,4,4,11.1c.5,1.4,2.1,2.2,3.6,1.6.8-.3,1.4-.9,1.6-1.6l4-11.1,11.1-4c1.4-.5,2.2-2.1,1.6-3.6-.3-.8-.9-1.4-1.6-1.6l-11.1-4-4-11.1c-.5-1.4-2.1-2.2-3.6-1.6-.8.3-1.4.9-1.6,1.6l-4,11.1-11.1,4c-1.1.4-1.8,1.4-1.8,2.6,0,1.2.7,2.2,1.8,2.6Z"/>
        <path class="st2" d="M507,1555.4l11.1,4,4,11.1c.5,1.4,2.1,2.2,3.6,1.6.8-.3,1.4-.9,1.6-1.6l4-11.1,11.1-4c1.4-.5,2.2-2.1,1.6-3.6-.3-.8-.9-1.4-1.6-1.6l-11.1-4-4-11.1c-.5-1.4-2.1-2.2-3.6-1.6-.8.3-1.4.9-1.6,1.6l-4,11.1-11.1,4c-1.1.4-1.8,1.4-1.8,2.6,0,1.2.7,2.2,1.8,2.6Z"/>
        <path class="st2" d="M1719.9,1155.6l11.1,4,4,11.1c.5,1.4,2.1,2.2,3.6,1.6.8-.3,1.4-.9,1.6-1.6l4-11.1,11.1-4c1.4-.5,2.2-2.1,1.6-3.6-.3-.8-.9-1.4-1.6-1.6l-11.1-4-4-11.1c-.5-1.4-2.1-2.2-3.6-1.6-.8.3-1.4.9-1.6,1.6l-4,11.1-11.1,4c-1.1.4-1.8,1.4-1.8,2.6,0,1.2.7,2.2,1.8,2.6Z"/>
        <path class="st2" d="M1755.4,1516.3l18.9,6.9,6.9,18.9c.9,2.5,3.7,3.7,6.1,2.8,1.3-.5,2.3-1.5,2.8-2.8l6.9-18.9,18.9-6.9c2.5-.9,3.7-3.7,2.8-6.1-.5-1.3-1.5-2.3-2.8-2.8l-18.9-6.9-6.9-18.9c-.9-2.5-3.7-3.7-6.1-2.8-1.3.5-2.3,1.5-2.8,2.8l-6.9,18.9-18.9,6.9c-1.9.7-3.1,2.5-3.1,4.5,0,2,1.2,3.8,3.1,4.5Z"/>
        <path class="st2" d="M1572.1,727.7l18.9,6.9,6.9,18.9c.9,2.5,3.7,3.7,6.1,2.8,1.3-.5,2.3-1.5,2.8-2.8l6.9-18.9,18.9-6.9c2.5-.9,3.7-3.7,2.8-6.1-.5-1.3-1.5-2.3-2.8-2.8l-18.9-6.9-6.9-18.9c-.9-2.5-3.7-3.7-6.1-2.8-1.3.5-2.3,1.5-2.8,2.8l-6.9,18.9-18.9,6.9c-1.9.7-3.1,2.5-3.1,4.5,0,2,1.2,3.8,3.1,4.5Z"/>
      </g>
      <path class="st2" d="M1878.7,1699.1c-94.7,0-176.6,54.7-215.9,134.2-30-59-91.2-99.3-161.9-99.3s-41,3.5-59.6,10c-49.3-71.8-90.2-141.7-120.9-234.8-8.9-38.2-36.7-37.1-43.8,0-30.7,93.1-71.6,163-120.9,234.8-18.7-6.5-38.7-10-59.6-10-70.7,0-131.9,40.4-161.8,99.3-39.3-79.5-121.2-134.2-215.9-134.2s-240.7,107.7-240.7,240.7,82.4,213.2,192,235.7l628.8,220.5,628.8-220.5c109.6-22.5,192-119.5,192-235.7s-107.7-240.7-240.7-240.7Z"/>
      <circle cx="1298.6" cy="971.2" r="46.3"/>
      <g>
        <path class="st2" d="M1170,804.8c0,291.5,34.7,466.6,34.7,466.6h187.6s34.7-175.2,34.7-466.6-106.4-389.6-128.6-389.6-128.6,78.7-128.6,389.6Z"/>
        <path class="st2" d="M1018.7,1197.9c-20.2,26.7,18.6,186,18.6,186,9.7-16.2,19.4-44.5,55-67.9,35.6-23.5,59.7-40.6,59.7-40.6l-8.7-206.7s-104.4,102.6-124.6,129.2Z"/>
        <polygon class="st2" points="1299.4 1322.2 1298.6 1322.2 1297.7 1322.2 1297.7 1322.2 1255.2 1322.6 1265.3 1424.2 1298.6 1424.1 1331.9 1424.2 1341.9 1322.6 1299.4 1322.2 1299.4 1322.2"/>
        <path class="st2" d="M1578.4,1197.9c-20.2-26.7-124.6-129.2-124.6-129.2l-8.7,206.7s24.2,17.2,59.7,40.6c35.6,23.5,45.3,51.8,55,67.9,0,0,38.8-159.3,18.6-186Z"/>
      </g>
      <circle cx="1298.6" cy="705.3" r="94.8"/>
      <circle class="st0" cx="1298.6" cy="1293.8" r="948.7"/>
    </g>
    <text>
      <textPath startOffset="33.5%" xlink:href="#path"><tspan class="st1"><tspan x="0" y="0" xml:space="preserve">COSMIC  WEB  STUDIO</tspan></tspan>
      </textPath></text>
  </g>
</svg>