<?xml version="1.0" encoding="UTF-8"?>
<svg id="svg9768" xmlns="http://www.w3.org/2000/svg" xmlns:svg="http://www.w3.org/2000/svg" xmlns:sodipodi="http://sodipodi.sourceforge.net/DTD/sodipodi-0.dtd" xmlns:rdf="http://www.w3.org/1999/02/22-rdf-syntax-ns#" xmlns:inkscape="http://www.inkscape.org/namespaces/inkscape" xmlns:dc="http://purl.org/dc/elements/1.1/" xmlns:cc="http://creativecommons.org/ns#" version="1.1" viewBox="0 0 148 148">
  <!-- Generator: Adobe Illustrator 29.2.1, SVG Export Plug-In . SVG Version: 2.1.0 Build 116)  -->
  <defs>
    <style>
      .st0 {
        fill: #fff;
      }

      .st1 {
        fill: #4e8416;
      }
    </style>
  </defs>
  <rect class="st1" x="-23" y="-24.6" width="216" height="201"/>
  <sodipodi:namedview id="base" bordercolor="#666666" borderopacity="1.0" fit-margin-bottom="0" fit-margin-left="0" fit-margin-right="0" fit-margin-top="0" inkscape:current-layer="layer1" inkscape:cx="58.5" inkscape:cy="12.050003" inkscape:document-units="mm" inkscape:pageopacity="0.0" inkscape:pageshadow="2" inkscape:window-height="744" inkscape:window-maximized="1" inkscape:window-width="1280" inkscape:window-x="-4" inkscape:window-y="-4" inkscape:zoom="7.6666667" pagecolor="#ffffff" showgrid="false" units="px"/>
  <g id="layer1" inkscape:groupmode="layer" inkscape:label="Layer 1">
    <path id="path9738" class="st0" d="M48.2,67.6c-.4,0-.7.3-.7.7v13.7c-1,.2-2.1.4-3.2.4-2.4,0-3.2-.9-3.2-3.5v-10.6c0-.4-.3-.7-.6-.7h-3.6v11.3c0,5.3,2.8,7,7.3,7s7.2-1,7.5-1.1v-17.2h-3.5ZM103.3,85.7c.3,0,.7-.3.7-.7v-13.8c1-.2,2.1-.4,3.2-.4,2.4,0,3.2.9,3.2,3.5v10.7c0,.4.3.7.6.7h3.6v-11.4c0-5.3-2.8-7-7.3-7s-7.2,1-7.5,1.1v17.3h3.5ZM88.9,67.3c-4.7,0-7.6,2.5-7.6,8v2.7c0,6,3.2,8,6.6,8s3.5-1.2,4-1.9v1.1c0,.3.3.6.6.6h3.6v-17.5c.1,0-3.4-1-7.2-1ZM92,81.3c-.8.7-1.4,1.1-3.1,1.1-2.4.1-3.4-1.4-3.4-4.5v-2.5c0-3.5,1.3-4.5,3.4-4.5s2.7.1,3.1.2v10.2ZM125.2,67.3c-4.7,0-7.6,2.5-7.6,8v2.7c0,6,3.2,8,6.7,8s3.5-1.2,4-1.9v1.1c0,.3.3.6.6.6h3.6v-17.5s-3.5-1-7.3-1h0ZM128.3,81.3c-.8.7-1.4,1.1-3.1,1.1s-3.4-1.4-3.4-4.5v-2.5c0-3.6,1.3-4.5,3.4-4.5s2.7.1,3.1.2v10.2ZM15.5,85.7h3.8c.3,0,.6-.3.6-.6v-10h7c1.2,0,2,.9,2,1.9v8.1c0,.3.3.6.6.6h3.8v-23.8h-3.8c-.3,0-.6.3-.6.6v9h-7.2c-1,0-1.7-.8-1.7-1.7v-7.3c-.1-.2-.3-.6-.7-.6h-3.8v23.8h0ZM71.8,67.3c-2,0-3.9.8-4.8,1.4-1.3-1-3.1-1.4-5.3-1.4-3.3,0-6.1,1-6.5,1.2v17.3h3.6c.4,0,.6-.3.6-.7v-13.9c.9-.2,1.6-.3,2.2-.3,2.5,0,3.1,1,3.1,3.5v10.7c0,.3.2.7.6.7h3c.4,0,.6-.3.6-.7v-13.4c.7-.5,1.6-.8,2.5-.8,1.9,0,2.7.9,2.7,3.2v11c0,.3.2.7.6.7h3.6v-12.3c.1-4.6-2.8-6.2-6.5-6.2h0Z" inkscape:connector-curvature="0"/>
  </g>
</svg>